
<svg id="Layer_1" data-name="Layer 1" xmlns="http://www.w3.org/2000/svg" xmlns:xlink="http://www.w3.org/1999/xlink" viewBox="0 0 1024 1024">
  <defs>
    <style>
      .cls-1 {
        fill: url(#linear-gradient);
       
      }
    </style>
    <linearGradient id="linear-gradient" x1="43.26" y1="80.39" x2="935.6" y2="80.39" gradientUnits="userSpaceOnUse">
      <stop offset=".05" stop-color="#7b7b7b"/>
      <stop offset=".55" stop-color="#dedede"/>
      <stop offset=".86" stop-color="#a0a0a0"/>
    </linearGradient>
  </defs>
  <path class="cls-1" d="M228.56,80.25v45.78h-16.65V19.02h16.65v45.38c0,.12-.5.3-.4.59h16.65V19.02h17.04c.11.29-.4.47-.4.59v106.42h-16.65v-46.37h-16.65c-.11.29.4.47.4.59ZM159.2,34.08h15.06v91.95h16.65V34.08h15.85v-15.06h-47.56v15.06ZM152.71,19.04c-5.63-.02-11.27-.05-16.9-.07,0,0,0,50.44,0,55.03,0,8.55.26,17.14,0,25.69-.15,4.96-1.47,12.36-7.73,12.83-3.47.26-6.61-2.44-7.99-5.62-1.39-3.19-1.41-6.78-1.4-10.25.03-25.86.05-51.71.08-77.57-5.37,0-10.73,0-16.1,0-.15,23.74-.31,47.48-.46,71.21-.05,7.7-.06,15.63,2.8,22.79,8.05,20.13,38.7,18.12,45.75-1.85,2.44-6.91,2.42-14.42,2.38-21.75-.15-23.48-.29-46.95-.44-70.43ZM378.39,19.02l-14.47,77.29-13.67-77.29h-21.01v107.02h15.06V57.07l12.29,68.97,14.04.02,12.91-69.78v69.76h15.46V19.02h-20.61ZM287.22,126.03h-17.04V40.62c0-4.06,3.29-11.9,5.94-15.07,10.04-12.05,34.24-10.1,40.9,4.7.92,2.04,2.71,7.9,2.71,9.98v85.81h-16.65v-32.9h-15.85v32.9ZM287.17,78.87s.03,0,.05,0c5.28,0,10.57,0,15.85,0,.23,0,.19-37.64-1.06-40.89-.59-1.53-1.45-2.99-2.76-3.98-3.48-2.64-9.27-1.03-10.99,2.93-.89,2.05-.92,4.36-.93,6.59-.06,11.78-.11,23.56-.17,35.34ZM89.55,27.43c5.2,7.36,5.36,17.03,5.32,26.05-.05,12.36-.1,24.71-.15,37.07-.03,6.68-.07,13.49-2.12,19.85-1.09,3.38-2.8,6.61-5.16,9.27-.4.45-7.24,6.02-7.51,5.32,1.15,3,3.95,5.31,7.12,5.89.03,0,.06.01.09.02-.03,4.02-.05,8.05-.08,12.07-4.92.66-10.15-.23-14.26-3.01-4.11-2.78-6.96-7.57-6.85-12.54-5.87-1.31-11.86-3.48-15.87-7.97-3.53-3.94-5.15-9.26-5.76-14.51-1.26-10.79-1.11-21.7-.88-32.55.25-11.52-.68-23.13,1.05-34.58,1.83-12.07,11.76-19.51,23.84-20.18,8.12-.45,16.54,3.15,21.23,9.79ZM77.66,44.79c-.04-.72-.09-1.46-.17-2.19-.35-3.37-1.24-6.76-3.91-8.68-3.13-2.24-7.86-1.34-10.45,1.51-3.45,3.79-2.27,8.73-2.55,13.34-.34,5.54-.16,11.15,0,16.7.34,12.41-.13,25.21.31,37.4.46,12.6,16.13,12.45,16.65-.02.39-9.23-.15-18.58.16-27.84.34-10.07.49-20.15-.05-30.21ZM424.43,29.76v13.47h11.86v80.57c0,.13-.44.32-.42.54l.69.81h12.67V43.23h11.32v-12.93h-35.3c-.16,0-.41-.68-.81-.54ZM466.47,125.15h31.26v-12.4h-17.79v-29.64h14.01v-12.4h-14.01v-26.68c0-.16-.68-.41-.54-.81h18.32v-12.93h-31.26v94.86ZM717.62,30.29h-13.47v94.86h31.26v-12.4h-17.79V30.29ZM838.34,125.15h12.93V30.29h-12.93v94.86ZM860.98,125.15h31.26v-12.4h-17.79v-29.64h14.01v-12.4h-14.01v-27.49h17.79v-12.93h-31.26v94.86ZM826.36,39c-2.06-4.03-5.68-7.2-9.9-8.83-4.22-1.62-8.99-1.71-13.31-.34-5.02,1.59-9.43,5.18-11.72,9.92-2.59,5.36-2.14,11.2-1.95,16.96.54,16.81-1.52,33.59-.2,50.4.89,11.4,8.06,20.86,20.53,18.34,3.23-.65,6.09-3.53,7.78-6.23l1.35,5.93h9.7v-48.51h-19.4v12.4h7.01v18.05c0,1.77-2.08,5.59-3.91,6.33-4.96,2-9.21-.86-9.97-5.92.43-10.53.27-21.08.04-31.61-.12-5.21-.25-10.41-.34-15.62-.08-4.59-.96-10.34.92-14.67,1.41-3.24,5.04-5.33,8.77-3.69.98.43,1.84,1.13,2.48,1.99,2.19,2.97,2.07,7.05,2.21,10.56.17,4.36.11,8.7-.26,13.05,4.16-.13,8.32-.15,12.48-.05-.36-4.82.03-9.58.14-14.39.05-2.1,0-4.23-.24-6.32-.32-2.7-.97-5.33-2.2-7.74ZM915.13,67.98c-3.38-3.97-4.51-8.86-4.53-13.97,0-3.74-.3-10.13,3.77-12.03,2.52-1.18,6.48-.3,7.36,2.61.16.52.16,1.08.16,1.62-.01,5.2,0,10.41,0,15.61l.81.81h12.13v-18.59c0-7.13-7.46-13.95-14.34-14.76-21.22-2.5-24.25,14.53-22.84,31.46,1.41,16.88,23.11,22.65,24.74,35.09.58,4.42.95,9.4-.37,13.72-.58,1.9-1.61,3.87-3.68,4.4-2.93.74-6.23-1.49-7.17-4.2-.56-1.63-.57-3.38-.58-5.11-.02-4.3-.03-8.6-.05-12.9h-12.88c.98,9.51-2.85,19.7,4.4,27.86,2.26,2.54,5.27,4.3,8.51,5.32,12.42,3.9,21.76-3.69,24.06-14.04,1.13-5.06,1.11-10.51.75-15.67-.92-13.22-12.62-18.28-20.25-27.23ZM632.98,29.99c-.29.18-.52,1.31-.52,1.65v58.75l-16.17-60.09h-13.74c-.16,0-.41-.68-.81-.54v95.39h12.93v-58.75l16.17,58.75h14.55V30.29h-11.59c-.12,0-.41-.67-.83-.31ZM780.54,110.19c-4.21,22.6-38.92,20.27-39.73-3.1,1.11-19.27-1.51-40.23-.03-59.3.75-9.63,6.74-17.23,16.61-18.42,10.76-1.3,22.04,4.71,23.3,16.28,2.18,20.03-1.52,44.09-.14,64.54ZM767.74,48.35c-.86-4.8-3.63-7.67-8.77-6.61-4.28.88-4.75,5.14-5.23,8.78.97,17.38-1.31,36.16-.03,53.37.24,3.18.98,8.98,4.71,9.83,5.58,1.27,8.77-1.79,9.31-7.17,1.83-18.32-1.36-39.57,0-58.2ZM579.65,31.1v39.07h-13.47V30.29h-13.47v94.86h13.47v-42.04h13.47v42.04h12.93V30.29h-13.47c-.14.39.54.64.54.81ZM533.29,30.57c-13.9-5.66-27.02,3.06-28.05,17.76-1.34,19.21,1.07,39.95,0,59.33,1.82,20.95,29.63,24.84,37.48,7.26.32-.72,1.89-5.27,1.89-5.66v-21.29h-12.93v20.21c0,2.17-2.3,5.25-4.61,5.63-5.18.84-7.64-1.49-8.62-6.41.6-18.46-1.63-38.64-.26-56.91.38-5.13,2.25-9.67,8.33-8.85,2.18.3,5.17,2.93,5.17,5.1v22.37h12.93v-23.98c0-5.03-6.73-12.68-11.32-14.55ZM694.3,110.19c-3.61,21.77-37.18,20.8-39.2-1.49-1.28-14.16-.3-29.4.01-43.62.31-13.94-3.06-33.38,16.57-35.71,11.19-1.33,21.59,5.16,22.75,16.83,1.99,20.11-1.37,43.54-.13,63.99ZM681.51,48.35c-.51-4.76-3.92-7.74-8.78-6.62-2.23.51-4.53,3.81-4.7,6.07,1.51,18.87-1.97,40.79.01,59.3,1,9.32,12.45,9.15,13.48,0-1.47-18.69,1.96-40.42,0-58.75Z"/>
</svg>