<?xml version="1.0" encoding="UTF-8"?>
<svg id="Layer_1" data-name="Layer 1" xmlns="http://www.w3.org/2000/svg" xmlns:xlink="http://www.w3.org/1999/xlink" viewBox="0 0 1024 1024">
  <defs>
    <style>
      .cls-1 {
        fill: url(#linear-gradient);
      }
    </style>
    <linearGradient id="linear-gradient" x1="66.9" y1="93.1" x2="971.17" y2="93.1" gradientUnits="userSpaceOnUse">
      <stop offset=".05" stop-color="#7b7b7b"/>
      <stop offset=".55" stop-color="#dedede"/>
      <stop offset=".86" stop-color="#a0a0a0"/>
    </linearGradient>
  </defs>
  <path class="cls-1" d="M237.3,93.6v42.1h-15.31V37.29h15.31v41.73c0,.11-.46.28-.36.55h15.31v-42.28h15.67c.1.27-.36.44-.36.55v97.86h-15.31v-42.64h-15.31c-.1.27.36.44.36.55ZM173.52,51.14h13.85v84.56h15.31V51.14h14.58v-13.85h-43.74v13.85ZM167.55,37.31c-5.18-.02-10.36-.04-15.54-.06,0,0,0,46.38,0,50.6,0,7.86.24,15.76,0,23.62-.14,4.57-1.35,11.36-7.1,11.79-3.19.24-6.08-2.24-7.35-5.17-1.28-2.93-1.29-6.23-1.29-9.43.02-23.78.05-47.55.07-71.33-4.93,0-9.87,0-14.8,0-.14,21.83-.28,43.66-.43,65.49-.05,7.08-.05,14.38,2.58,20.96,7.41,18.51,35.58,16.66,42.07-1.7,2.24-6.36,2.23-13.26,2.19-20-.13-21.59-.27-43.18-.4-64.77ZM375.07,37.29l-13.3,71.08-12.57-71.08h-19.32v98.41h13.85v-63.42l11.3,63.42,12.91.02,11.87-64.17v64.15h14.21V37.29h-18.95ZM291.24,135.7h-15.67V57.15c0-3.74,3.03-10.94,5.46-13.86,9.23-11.08,31.49-9.29,37.61,4.32.84,1.87,2.49,7.27,2.49,9.17v78.91h-15.31v-30.25h-14.58v30.25ZM291.2,92.33s.03,0,.05,0c4.86,0,9.72,0,14.58,0,.21,0,.17-34.61-.97-37.6-.54-1.4-1.34-2.75-2.54-3.66-3.2-2.43-8.53-.95-10.11,2.7-.82,1.89-.84,4.01-.85,6.06-.05,10.83-.1,21.67-.15,32.5ZM109.47,45.02c4.78,6.77,4.93,15.66,4.9,23.95-.05,11.36-.09,22.73-.14,34.09-.03,6.15-.07,12.41-1.95,18.26-1,3.11-2.58,6.08-4.75,8.53-.36.41-6.65,5.54-6.9,4.89,1.06,2.76,3.63,4.89,6.54,5.42.03,0,.05,0,.08.01-.02,3.7-.05,7.4-.07,11.1-4.53.61-9.33-.21-13.11-2.77-3.78-2.56-6.4-6.97-6.3-11.53-5.4-1.21-10.9-3.2-14.6-7.33-3.24-3.62-4.73-8.51-5.3-13.34-1.16-9.92-1.02-19.96-.81-29.93.23-10.6-.63-21.27.97-31.8,1.68-11.1,10.82-17.94,21.93-18.56,7.47-.41,15.21,2.89,19.52,9ZM98.53,60.99c-.04-.66-.08-1.34-.15-2.02-.32-3.1-1.14-6.22-3.6-7.98-2.88-2.06-7.23-1.23-9.61,1.38-3.17,3.49-2.08,8.03-2.34,12.27-.31,5.1-.14,10.25,0,15.35.31,11.41-.12,23.18.29,34.39.42,11.58,14.83,11.45,15.32-.02.36-8.48-.14-17.08.15-25.6.31-9.26.45-18.53-.04-27.78ZM415.68,35.75v14.64h12.88v87.56c0,.15-.48.35-.46.59l.75.88h13.76V50.4h12.3v-14.06h-38.36c-.18,0-.45-.74-.88-.59ZM461.36,139.42h33.97v-13.47h-19.33v-32.21h15.23v-13.47h-15.23v-28.99c0-.18-.74-.45-.59-.88h19.91v-14.06h-33.97v103.08ZM734.29,36.34h-14.64v103.08h33.97v-13.47h-19.33V36.34ZM865.48,139.42h14.06V36.34h-14.06v103.08ZM890.08,139.42h33.97v-13.47h-19.33v-32.21h15.23v-13.47h-15.23v-29.87h19.33v-14.06h-33.97v103.08ZM852.45,45.8c-2.23-4.38-6.17-7.83-10.76-9.59-4.59-1.76-9.77-1.85-14.46-.37-5.45,1.72-10.25,5.63-12.73,10.78-2.81,5.83-2.32,12.17-2.12,18.43.59,18.27-1.65,36.5-.22,54.77.97,12.39,8.75,22.67,22.31,19.93,3.51-.71,6.62-3.83,8.46-6.77l1.47,6.44h10.54v-52.71h-21.08v13.47h7.61v19.62c0,1.92-2.26,6.08-4.25,6.88-5.39,2.17-10.01-.94-10.84-6.43.47-11.44.3-22.9.04-34.35-.13-5.66-.27-11.32-.37-16.97-.09-4.99-1.04-11.24,1-15.94,1.53-3.52,5.48-5.79,9.53-4.01,1.07.47,2,1.22,2.69,2.16,2.38,3.23,2.25,7.66,2.4,11.47.19,4.73.12,9.46-.29,14.18,4.52-.14,9.05-.16,13.57-.05-.4-5.24.03-10.41.15-15.64.05-2.28,0-4.6-.26-6.87-.34-2.93-1.05-5.79-2.39-8.41ZM948.93,77.29c-3.67-4.31-4.91-9.63-4.92-15.18,0-4.06-.32-11.01,4.1-13.08,2.74-1.28,7.04-.33,8,2.84.17.57.17,1.17.17,1.76-.01,5.65,0,11.31,0,16.96l.88.88h13.18v-20.21c0-7.75-8.1-15.16-15.58-16.04-23.06-2.72-26.36,15.79-24.82,34.19,1.53,18.35,25.12,24.62,26.88,38.13.63,4.81,1.03,10.21-.4,14.91-.62,2.06-1.75,4.21-4,4.78-3.19.81-6.77-1.62-7.79-4.56-.61-1.77-.62-3.68-.63-5.55-.02-4.67-.03-9.35-.05-14.02h-14c1.06,10.33-3.1,21.41,4.78,30.28,2.45,2.76,5.73,4.68,9.25,5.78,13.5,4.24,23.64-4.01,26.15-15.25,1.22-5.5,1.2-11.42.81-17.03-1-14.36-13.71-19.86-22-29.6ZM642.31,36.01c-.32.2-.56,1.43-.56,1.8v63.84l-17.57-65.3h-14.93c-.18,0-.45-.74-.88-.59v103.67h14.06v-63.84l17.57,63.84h15.81V36.34h-12.59c-.13,0-.45-.73-.9-.33ZM802.66,123.16c-4.57,24.55-42.3,22.03-43.18-3.37,1.21-20.94-1.64-43.72-.03-64.44.82-10.47,7.33-18.73,18.05-20.02,11.69-1.41,23.95,5.12,25.32,17.7,2.37,21.77-1.65,47.91-.16,70.13ZM788.76,55.96c-.94-5.21-3.95-8.34-9.53-7.18-4.65.96-5.16,5.59-5.69,9.54,1.05,18.88-1.43,39.3-.03,58,.26,3.46,1.07,9.76,5.12,10.69,6.07,1.38,9.54-1.94,10.12-7.79,1.99-19.91-1.48-43,0-63.25ZM584.35,37.22v42.46h-14.64v-43.34h-14.64v103.08h14.64v-45.68h14.64v45.68h14.06V36.34h-14.64c-.16.43.59.7.59.88ZM533.98,36.64c-15.11-6.15-29.37,3.33-30.48,19.3-1.45,20.88,1.16,43.42,0,64.47,1.97,22.77,32.2,26.99,40.73,7.89.35-.79,2.05-5.73,2.05-6.15v-23.13h-14.06v21.96c0,2.36-2.49,5.7-5.01,6.11-5.63.92-8.3-1.61-9.37-6.96.66-20.06-1.77-41.99-.29-61.85.42-5.58,2.44-10.51,9.05-9.61,2.37.32,5.61,3.18,5.61,5.54v24.31h14.06v-26.06c0-5.47-7.31-13.78-12.3-15.81ZM708.95,123.16c-3.92,23.66-40.4,22.6-42.59-1.62-1.39-15.39-.33-31.95.01-47.41.33-15.15-3.32-36.27,18-38.81,12.16-1.45,23.46,5.61,24.72,18.29,2.17,21.85-1.48,47.32-.15,69.54ZM695.05,55.96c-.55-5.17-4.26-8.41-9.54-7.19-2.43.56-4.92,4.14-5.11,6.6,1.64,20.51-2.14,44.33.01,64.44,1.08,10.13,13.53,9.95,14.65,0-1.6-20.31,2.13-43.92,0-63.84Z"/>
</svg>