<svg width="15" height="12" viewBox="0 0 15 12" fill="none" xmlns="http://www.w3.org/2000/svg">
<path d="M2.25 0.200195H12.75C13.2256 0.200195 13.6841 0.365335 14.0488 0.664062L14.1992 0.800781C14.5837 1.18523 14.7998 1.70631 14.7998 2.25V9.75C14.7998 10.2256 14.6347 10.6841 14.3359 11.0488L14.1992 11.1992C13.8148 11.5837 13.2937 11.7998 12.75 11.7998H2.25C1.77441 11.7998 1.31591 11.6347 0.951172 11.3359L0.800781 11.1992C0.416332 10.8148 0.200195 10.2937 0.200195 9.75V2.25L0.209961 2.04785C0.24981 1.64556 0.407923 1.26391 0.664062 0.951172L0.800781 0.800781C1.18523 0.416332 1.70631 0.200195 2.25 0.200195ZM1.2998 9.75C1.2998 10.002 1.39997 10.2437 1.57812 10.4219C1.75629 10.6 1.99804 10.7002 2.25 10.7002H12.75C13.002 10.7002 13.2437 10.6 13.4219 10.4219C13.6 10.2437 13.7002 10.002 13.7002 9.75V3.60449L13.3965 3.78906L7.75977 7.21387C7.67626 7.26208 7.58178 7.28802 7.48535 7.28809C7.38881 7.28809 7.29357 7.26214 7.20996 7.21387H7.20898L1.60449 3.78906L1.2998 3.60352V9.75ZM2.25 1.2998C1.99804 1.2998 1.75628 1.39997 1.57812 1.57812C1.39997 1.75628 1.2998 1.99804 1.2998 2.25V2.3623L1.39551 2.4209L7.39551 6.08105L7.5 6.14453L7.60449 6.08105L13.6045 2.4209L13.7002 2.3623V2.25C13.7002 1.99804 13.6 1.75629 13.4219 1.57812C13.2437 1.39997 13.002 1.2998 12.75 1.2998H2.25Z" fill="#F5F5F5" stroke="black" stroke-width="0.4"/>
</svg>
