<svg width="25" height="24" viewBox="0 0 25 24" fill="none" xmlns="http://www.w3.org/2000/svg">
<path d="M12.5996 15C14.2565 15 15.5996 13.6569 15.5996 12C15.5996 10.3431 14.2565 9 12.5996 9C10.9428 9 9.59961 10.3431 9.59961 12C9.59961 13.6569 10.9428 15 12.5996 15Z" fill="#EDEDED"/>
<path d="M16.7227 2.625H8.47266C7.08075 2.62658 5.74631 3.18021 4.76209 4.16443C3.77786 5.14865 3.22423 6.4831 3.22266 7.875V16.125C3.22423 17.5169 3.77786 18.8513 4.76209 19.8356C5.74631 20.8198 7.08075 21.3734 8.47266 21.375H16.7227C18.1146 21.3734 19.449 20.8198 20.4332 19.8356C21.4174 18.8513 21.9711 17.5169 21.9727 16.125V7.875C21.9711 6.4831 21.4174 5.14865 20.4332 4.16443C19.449 3.18021 18.1146 2.62658 16.7227 2.625ZM12.5977 16.5C11.7076 16.5 10.8376 16.2361 10.0976 15.7416C9.35757 15.2471 8.78079 14.5443 8.4402 13.7221C8.0996 12.8998 8.01049 11.995 8.18412 11.1221C8.35776 10.2492 8.78634 9.44736 9.41568 8.81802C10.045 8.18868 10.8468 7.7601 11.7197 7.58647C12.5927 7.41283 13.4975 7.50195 14.3197 7.84254C15.142 8.18314 15.8448 8.75991 16.3393 9.49993C16.8337 10.24 17.0977 11.11 17.0977 12C17.0963 13.1931 16.6218 14.3369 15.7781 15.1805C14.9345 16.0241 13.7907 16.4987 12.5977 16.5ZM17.4727 8.25C17.2502 8.25 17.0326 8.18402 16.8476 8.0604C16.6626 7.93679 16.5184 7.76109 16.4333 7.55552C16.3481 7.34995 16.3259 7.12375 16.3693 6.90552C16.4127 6.68729 16.5198 6.48684 16.6772 6.3295C16.8345 6.17217 17.035 6.06502 17.2532 6.02162C17.4714 5.97821 17.6976 6.00049 17.9032 6.08564C18.1087 6.17078 18.2844 6.31498 18.4081 6.49998C18.5317 6.68499 18.5977 6.9025 18.5977 7.125C18.5977 7.42337 18.4791 7.70952 18.2682 7.9205C18.0572 8.13147 17.771 8.25 17.4727 8.25Z" fill="#EDEDED"/>
</svg>
