<svg width="25" height="24" viewBox="0 0 25 24" fill="none" xmlns="http://www.w3.org/2000/svg">
<path d="M20.2754 2.625H4.52539C4.1277 2.62545 3.74644 2.78363 3.46523 3.06484C3.18402 3.34604 3.02584 3.72731 3.02539 4.125V19.875C3.02585 20.2727 3.18403 20.654 3.46523 20.9352C3.74644 21.2164 4.12771 21.3745 4.52539 21.375H20.2754C20.6731 21.3745 21.0543 21.2164 21.3356 20.9352C21.6168 20.654 21.7749 20.2727 21.7754 19.875V4.125C21.7749 3.72731 21.6168 3.34604 21.3356 3.06484C21.0543 2.78363 20.6731 2.62545 20.2754 2.625ZM9.40039 16.5001C9.40039 16.699 9.32137 16.8898 9.18072 17.0304C9.04007 17.1711 8.8493 17.2501 8.65039 17.2501C8.45148 17.2501 8.26071 17.1711 8.12006 17.0304C7.97941 16.8898 7.90039 16.699 7.90039 16.5001V10.5001C7.90039 10.3012 7.97941 10.1104 8.12006 9.96976C8.26071 9.82911 8.45148 9.75009 8.65039 9.75009C8.8493 9.75009 9.04007 9.82911 9.18072 9.96976C9.32137 10.1104 9.40039 10.3012 9.40039 10.5001V16.5001ZM8.65039 8.625C8.42789 8.625 8.21038 8.55902 8.02537 8.4354C7.84037 8.31179 7.69617 8.13609 7.61103 7.93052C7.52588 7.72495 7.5036 7.49875 7.54701 7.28052C7.59042 7.06229 7.69756 6.86184 7.8549 6.7045C8.01223 6.54717 8.21269 6.44003 8.43091 6.39662C8.64914 6.35321 8.87534 6.37549 9.08091 6.46064C9.28648 6.54578 9.46218 6.68998 9.58579 6.87498C9.70941 7.05999 9.77539 7.2775 9.77539 7.5C9.77539 7.79837 9.65686 8.08452 9.44589 8.2955C9.23491 8.50647 8.94876 8.625 8.65039 8.625ZM17.6504 16.5001C17.6504 16.699 17.5714 16.8898 17.4307 17.0304C17.2901 17.1711 17.0993 17.2501 16.9004 17.2501C16.7015 17.2501 16.5107 17.1711 16.3701 17.0304C16.2294 16.8898 16.1504 16.699 16.1504 16.5001V13.1251C16.1504 12.6278 15.9528 12.1509 15.6012 11.7993C15.2496 11.4476 14.7727 11.2501 14.2754 11.2501C13.7781 11.2501 13.3012 11.4476 12.9496 11.7993C12.5979 12.1509 12.4004 12.6278 12.4004 13.1251V16.5001C12.4004 16.699 12.3214 16.8898 12.1807 17.0304C12.0401 17.1711 11.8493 17.2501 11.6504 17.2501C11.4515 17.2501 11.2607 17.1711 11.1201 17.0304C10.9794 16.8898 10.9004 16.699 10.9004 16.5001V10.5001C10.9003 10.3157 10.9682 10.1378 11.091 10.0003C11.2139 9.86284 11.383 9.77543 11.5662 9.7548C11.7494 9.73417 11.9338 9.78177 12.0842 9.88849C12.2345 9.99522 12.3402 10.1536 12.3812 10.3334C12.8884 9.98867 13.48 9.78877 14.0923 9.75516C14.7046 9.72155 15.3145 9.85551 15.8564 10.1426C16.3983 10.4297 16.8517 10.8591 17.1678 11.3846C17.4839 11.9101 17.6507 12.5118 17.6504 13.1251V16.5001Z" fill="#EDEDED"/>
</svg>
