<svg width="15" height="14" viewBox="0 0 15 14" fill="none" xmlns="http://www.w3.org/2000/svg">
<path d="M2.83691 0.55957H4.8418C5.21695 0.554116 5.58293 0.666434 5.88965 0.87793L6.01758 0.974609C6.30638 1.21433 6.51176 1.53724 6.60742 1.89746L6.6416 2.05371C6.65171 2.13032 6.66338 2.20709 6.67676 2.2832L6.72363 2.51758C6.77555 2.7463 6.83977 2.97197 6.91406 3.19434L6.99121 3.41602C7.08633 3.67843 7.08183 3.96666 6.97754 4.22559C6.87294 4.48498 6.67598 4.69729 6.4248 4.82031L6.41211 4.82617L6.40137 4.83301L6.12109 5.01953L5.96777 5.12207L6.05762 5.2832C6.38149 5.86541 6.77414 6.40642 7.22656 6.89453L7.42383 7.10059L7.4248 7.10156C7.96512 7.63794 8.57686 8.09766 9.24219 8.46777L9.42578 8.57031L9.51855 8.38086L9.66504 8.08105C9.77265 7.86128 9.94816 7.6825 10.1641 7.57129L10.2598 7.52832C10.5191 7.42383 10.8076 7.41912 11.0703 7.51465V7.51367C11.3626 7.6242 11.6626 7.71293 11.9678 7.78027V7.78125C12.0856 7.80803 12.2607 7.85726 12.4277 7.86328C12.7852 7.92818 13.1132 8.10004 13.3701 8.35352L13.4766 8.46777C13.746 8.7842 13.8981 9.18414 13.9062 9.59961H13.9053V11.6006C13.9062 11.7916 13.8768 11.9811 13.8184 12.1621L13.751 12.3398C13.6733 12.5145 13.5681 12.6753 13.4404 12.8164L13.3057 12.9502C12.9754 13.2443 12.5487 13.4068 12.1064 13.4062H11.8633C9.29025 13.0857 6.88566 11.9712 4.98047 10.2246L4.60547 9.86621C2.76531 8.03273 1.54646 5.67369 1.11328 3.12109L1.03711 2.60742V2.60547L1.02148 2.41309C1.01765 2.28446 1.02718 2.15579 1.05078 2.0293L1.09668 1.84082C1.15253 1.65522 1.23746 1.48 1.34863 1.32227L1.46875 1.1709C1.59685 1.0253 1.74722 0.9009 1.91406 0.803711L2.08691 0.71582C2.26374 0.636924 2.4517 0.587293 2.64355 0.568359L2.83691 0.55957ZM2.78711 1.51172C2.72606 1.5183 2.66571 1.53051 2.60742 1.5498L2.52246 1.58398C2.43831 1.62213 2.36066 1.67304 2.29297 1.73535L2.22852 1.80078L2.22656 1.80371C2.16597 1.87564 2.11628 1.95655 2.08008 2.04297L2.04883 2.13086C2.02147 2.22059 2.00719 2.31378 2.00781 2.40723L2.01367 2.50098V2.50391C2.30779 4.88743 3.3384 7.11561 4.95508 8.88086L5.28613 9.22754C6.98022 10.9296 9.1601 12.0582 11.5195 12.4609L11.9941 12.5312H11.9951C12.089 12.5426 12.1839 12.5394 12.2764 12.5215L12.3682 12.499C12.4587 12.4714 12.5447 12.4298 12.6221 12.376L12.6963 12.3174L12.6982 12.3164C12.7676 12.2554 12.8265 12.1838 12.873 12.1045L12.915 12.0234C12.9531 11.9395 12.9774 11.85 12.9873 11.7588L12.9922 11.667V11.665L12.9795 9.58496C12.9818 9.43567 12.9453 9.28912 12.875 9.15918L12.793 9.03418C12.668 8.876 12.4911 8.76592 12.2939 8.72363H12.2949L12.2812 8.72168L12.0176 8.67773C11.9299 8.66151 11.8424 8.64349 11.7559 8.62402H11.7549C11.4064 8.54486 11.0631 8.44456 10.7266 8.32422L10.5518 8.26172L10.4766 8.43164L10.0625 9.36523C10.0498 9.39199 10.035 9.41764 10.0176 9.44141L9.95605 9.50977C9.9105 9.55132 9.85687 9.58367 9.79883 9.60449L9.86621 9.79297L9.79785 9.60449L9.79004 9.6084C9.67784 9.65449 9.55199 9.65432 9.43945 9.60938C7.55454 8.72822 6.01619 7.25228 5.05762 5.41406L4.87402 5.04199C4.86104 5.01403 4.85096 4.9849 4.84375 4.95508L4.83105 4.86426C4.82859 4.80305 4.83823 4.74207 4.85938 4.68457C4.87002 4.65568 4.8834 4.62768 4.89941 4.60156L4.95508 4.52832C4.97589 4.50588 4.99878 4.48564 5.02344 4.46777L5.10254 4.4209H5.10352L6.03711 3.9873L6.20508 3.90918L6.13965 3.73535C6.04688 3.48981 5.96779 3.23941 5.90234 2.98535L5.84082 2.73047V2.72949L5.78711 2.46777C5.77094 2.38043 5.75611 2.29256 5.74316 2.2041H5.74414L5.74121 2.19141L5.69727 2.04785C5.65986 1.95537 5.60648 1.87032 5.54004 1.7959L5.43164 1.69238C5.27457 1.5683 5.07895 1.50239 4.87891 1.50586H2.87891L2.78711 1.51172Z" fill="#F5F5F5" stroke="black" stroke-width="0.4"/>
</svg>
