<svg width="25" height="24" viewBox="0 0 25 24" fill="none" xmlns="http://www.w3.org/2000/svg">
<path d="M22.3669 6.54384C22.278 6.19889 22.1083 5.88003 21.8719 5.61358C21.6354 5.34713 21.339 5.14072 21.0071 5.01139C17.7943 3.7768 12.6778 3.7871 12.3984 3.78857C12.1193 3.78632 7.00264 3.77675 3.78983 5.01139C3.45791 5.14071 3.16151 5.34711 2.92507 5.61355C2.68863 5.87998 2.51894 6.19882 2.42999 6.54375C2.18747 7.47475 1.89844 9.17713 1.89844 12.0003C1.89844 14.8235 2.18747 16.5259 2.42995 17.4568C2.51888 17.8018 2.68856 18.1207 2.925 18.3871C3.16144 18.6536 3.45785 18.86 3.78978 18.9893C6.86536 20.1712 11.6856 20.2123 12.3367 20.2123C12.3949 20.2123 12.402 20.2123 12.4602 20.2123C13.1118 20.2123 17.9317 20.1711 21.0071 18.9893C21.339 18.86 21.6354 18.6536 21.8718 18.3871C22.1082 18.1207 22.2779 17.8019 22.3669 17.4569C22.6094 16.5259 22.8984 14.8236 22.8984 12.0003C22.8984 9.17718 22.6094 7.4748 22.3669 6.54384ZM15.6064 12.3124L11.1064 15.3124C11.05 15.35 10.9843 15.3716 10.9165 15.3749C10.8487 15.3782 10.7813 15.363 10.7215 15.331C10.6616 15.299 10.6116 15.2513 10.5767 15.1931C10.5418 15.1348 10.5234 15.0682 10.5234 15.0003V9.00034C10.5234 8.93246 10.5418 8.86586 10.5767 8.80763C10.6116 8.74939 10.6616 8.70172 10.7215 8.66969C10.7813 8.63767 10.8487 8.62248 10.9165 8.62576C10.9843 8.62905 11.05 8.65067 11.1064 8.68833L15.6064 11.6883C15.6578 11.7226 15.6999 11.769 15.7291 11.8234C15.7582 11.8778 15.7734 11.9386 15.7734 12.0003C15.7734 12.0621 15.7582 12.1229 15.7291 12.1773C15.6999 12.2317 15.6578 12.2781 15.6064 12.3124Z" fill="#EDEDED"/>
</svg>
