<svg width="16" height="16" viewBox="0 0 16 16" fill="none" xmlns="http://www.w3.org/2000/svg">
<rect width="16" height="16" rx="8" fill="white" fill-opacity="0.1"/>
<g clip-path="url(#clip0_599_14077)">
<path d="M7.99915 2.8667C6.92982 2.86791 5.90463 3.29324 5.1485 4.04938C4.39236 4.80551 3.96703 5.8307 3.96582 6.90003C3.96582 10.3513 7.63249 12.9578 7.78878 13.0669C7.85043 13.1101 7.92388 13.1333 7.99915 13.1333C8.07443 13.1333 8.14788 13.1101 8.20953 13.0669C8.36582 12.9578 12.0325 10.3513 12.0325 6.90003C12.0313 5.8307 11.6059 4.80551 10.8498 4.04938C10.0937 3.29324 9.06849 2.86791 7.99915 2.8667ZM7.99915 5.43337C8.28923 5.43337 8.5728 5.51938 8.81399 5.68054C9.05518 5.8417 9.24317 6.07077 9.35418 6.33876C9.46519 6.60676 9.49423 6.90166 9.43764 7.18616C9.38105 7.47067 9.24136 7.73201 9.03624 7.93712C8.83113 8.14224 8.56979 8.28193 8.28529 8.33852C8.00078 8.39511 7.70588 8.36606 7.43788 8.25506C7.16989 8.14405 6.94082 7.95606 6.77966 7.71487C6.61851 7.47368 6.53249 7.19011 6.53249 6.90003C6.53249 6.51105 6.68701 6.138 6.96206 5.86294C7.23712 5.58789 7.61017 5.43337 7.99915 5.43337Z" fill="white"/>
</g>
<defs>
<clipPath id="clip0_599_14077">
<rect width="11.7333" height="11.7333" fill="white" transform="translate(2.13281 2.1333)"/>
</clipPath>
</defs>
</svg>
