<?xml version="1.0" encoding="UTF-8"?>
<svg id="Layer_1" data-name="Layer 1" xmlns="http://www.w3.org/2000/svg" xmlns:xlink="http://www.w3.org/1999/xlink" viewBox="0 0 897.51 316.83">
  <defs>
    <style>
      .cls-1 {
        fill: url(#linear-gradient);
      }
    </style>
    <linearGradient id="linear-gradient" x1="0" y1="158.41" x2="897.51" y2="158.41" gradientUnits="userSpaceOnUse">
      <stop offset=".05" stop-color="#7b7b7b"/>
      <stop offset=".55" stop-color="#dedede"/>
      <stop offset=".86" stop-color="#a0a0a0"/>
    </linearGradient>
  </defs>
  <path class="cls-1" d="M774.51,3.58l34.5,195.01L845.51,3.58h52v270h-39V97.58l-32.58,176.06-35.42-.05-31-174.01v174h-38V3.58h53ZM110.46,285.81c-7.98-1.45-15.04-7.28-17.95-14.86.68,1.77,17.94-12.29,18.94-13.42,5.96-6.71,10.29-14.88,13.03-23.4,5.16-16.05,5.28-33.23,5.35-50.09.13-31.18.26-62.35.39-93.53.09-22.75-.31-47.15-13.43-65.72C104.94,8.04,83.72-1.04,63.22.09,32.74,1.78,7.68,20.55,3.06,51.01-1.32,79.9,1.04,109.19.41,138.26c-.6,27.36-.97,54.88,2.21,82.11,1.55,13.25,5.64,26.67,14.54,36.6,10.13,11.31,25.23,16.78,40.05,20.1-.27,12.53,6.91,24.62,17.29,31.64,10.38,7.02,23.56,9.26,35.98,7.6.07-10.15.13-20.3.2-30.46-.07-.01-.14-.02-.21-.04ZM86.36,63.06c.19,1.86.32,3.72.42,5.54,1.35,25.39.98,50.82.12,76.22-.79,23.37.57,46.96-.4,70.24-1.32,31.47-40.86,31.84-42.02.05-1.12-30.77.07-63.06-.79-94.36-.38-13.99-.84-28.14.01-42.13.71-11.62-2.27-24.09,6.43-33.66,6.54-7.19,18.47-9.45,26.37-3.8,6.75,4.83,8.99,13.39,9.87,21.89ZM697.51,57.08c0-5.24-4.52-20.03-6.83-25.17-16.8-37.34-77.86-42.25-103.19-11.85-6.67,8.01-14.98,27.77-14.98,38.02v215.5h43v-83h40v83h42V57.08ZM615.51,154.59s-.08,0-.13,0c.14-29.72.28-59.45.43-89.17.03-5.64.09-11.46,2.34-16.64,4.34-10.01,18.95-14.05,27.74-7.4,3.29,2.49,5.48,6.19,6.96,10.04,3.15,8.19,3.26,103.15,2.67,103.15-13.33,0-26.67,0-40,.02ZM425.51,3.58v270h42v-115.5c0-.3-1.27-.77-1-1.5h42v117h42V5.08c0-.3,1.27-.77,1-1.5h-43v116h-42c-.27-.73,1-1.2,1-1.5V3.58h-42ZM149.93,3.7c-.39,59.89-.78,119.78-1.17,179.67-.13,19.44-.15,39.45,7.07,57.49,20.32,50.79,97.63,45.72,115.42-4.67,6.16-17.44,6.11-36.37,6-54.87-.37-59.23-.73-118.47-1.1-177.7-14.21-.06-28.42-.11-42.63-.17,0,0,0,127.26,0,138.83,0,21.57.66,43.25.02,64.81-.37,12.52-3.7,31.17-19.49,32.36-8.75.66-16.67-6.15-20.17-14.19s-3.55-17.1-3.54-25.87c.07-65.24.14-130.47.2-195.71-13.54,0-27.07,0-40.61,0ZM292.51,3.58v38h38v232h42V41.58h40V3.58h-120Z"/>
</svg>