<?xml version="1.0" encoding="UTF-8"?>
<svg id="Layer_1" data-name="Layer 1" xmlns="http://www.w3.org/2000/svg" xmlns:xlink="http://www.w3.org/1999/xlink" viewBox="0 0 1024 1110.76">
  <defs>
    <style>
      .cls-1 {
        fill: url(#linear-gradient);
      }
    </style>
    <linearGradient id="linear-gradient" x1="72.49" y1="186.16" x2="970" y2="186.16" gradientUnits="userSpaceOnUse">
      <stop offset=".05" stop-color="#7b7b7b"/>
      <stop offset=".55" stop-color="#dedede"/>
      <stop offset=".86" stop-color="#a0a0a0"/>
    </linearGradient>
  </defs>
  <path class="cls-1" d="M540,158.08v115.5h-42V3.58h42v114.5c0,.3-1.27.77-1,1.5h42V3.58h43c.27.73-1,1.2-1,1.5v268.5h-42v-117h-42c-.27.73,1,1.2,1,1.5ZM365,41.58h38v232h42V41.58h40V3.58h-120v38ZM348.63,3.64c-14.21-.06-28.42-.11-42.63-.17,0,0,0,127.26,0,138.83,0,21.57.66,43.25.02,64.81-.37,12.52-3.7,31.17-19.49,32.36-8.75.66-16.67-6.15-20.17-14.19-3.5-8.04-3.55-17.1-3.54-25.87.07-65.24.14-130.47.2-195.71-13.54,0-27.07,0-40.61,0-.39,59.89-.78,119.78-1.17,179.67-.13,19.44-.15,39.45,7.07,57.49,20.32,50.79,97.63,45.72,115.42-4.67,6.16-17.44,6.11-36.37,6-54.87-.37-59.23-.73-118.47-1.1-177.7ZM918,3.58l-36.5,195.01L847,3.58h-53v270h38V99.58l31,174.01,35.42.05,32.58-176.06v176h39V3.58h-52ZM688,273.58h-43V58.08c0-10.26,8.3-30.01,14.98-38.02,25.33-30.4,86.39-25.49,103.19,11.85,2.31,5.14,6.83,19.93,6.83,25.17v216.5h-42v-83h-40v83ZM687.87,154.59s.08,0,.13,0c13.33-.01,26.67-.02,40-.02.58,0,.48-94.96-2.67-103.15-1.48-3.85-3.67-7.55-6.96-10.04-8.78-6.66-23.39-2.61-27.74,7.4-2.25,5.17-2.31,11-2.34,16.64l-.43,89.17ZM189.28,24.8c13.13,18.58,13.53,42.98,13.43,65.72-.13,31.17-.26,62.35-.39,93.53-.07,16.86-.19,34.04-5.35,50.09-2.74,8.52-7.07,16.68-13.03,23.4-1,1.13-18.26,15.2-18.94,13.42,2.91,7.58,9.97,13.41,17.95,14.86.07.01.14.03.21.04-.07,10.15-.13,20.3-.2,30.46-12.42,1.67-25.6-.58-35.98-7.6-10.38-7.02-17.56-19.11-17.29-31.64-14.82-3.32-29.92-8.79-40.05-20.1-8.9-9.93-12.99-23.35-14.54-36.6-3.18-27.23-2.81-54.75-2.21-82.11.64-29.07-1.72-58.36,2.66-87.25C80.17,20.55,105.23,1.78,135.71.09c20.5-1.13,41.72,7.94,53.57,24.71ZM159.27,68.6c-.1-1.82-.22-3.68-.42-5.54-.88-8.5-3.12-17.06-9.87-21.89-7.9-5.65-19.83-3.39-26.37,3.8-8.7,9.57-5.72,22.04-6.43,33.66-.85,13.99-.39,28.13-.01,42.13.86,31.3-.34,63.59.79,94.36,1.16,31.78,40.7,31.42,42.02-.05.98-23.28-.39-46.87.4-70.24.86-25.4,1.23-50.83-.12-76.22ZM578.96,300.36v10.07h8.86v60.23c0,.1-.33.24-.32.4l.52.6h9.47v-61.23h8.46v-9.67h-26.39c-.12,0-.31-.51-.6-.4ZM610.38,371.67h23.37v-9.27h-13.29v-22.16h10.47v-9.27h-10.47v-19.94c0-.12-.51-.31-.4-.6h13.7v-9.67h-23.37v70.9ZM798.11,300.77h-10.07v70.9h23.37v-9.27h-13.29v-61.64ZM888.35,371.67h9.67v-70.9h-9.67v70.9ZM905.27,371.67h23.37v-9.27h-13.29v-22.16h10.47v-9.27h-10.47v-20.55h13.29v-9.67h-23.37v70.9ZM879.39,307.28c-1.54-3.01-4.25-5.39-7.4-6.6s-6.72-1.27-9.95-.26c-3.75,1.18-7.05,3.87-8.76,7.42-1.93,4.01-1.6,8.37-1.46,12.67.4,12.57-1.14,25.11-.15,37.67.67,8.52,6.02,15.59,15.35,13.71,2.41-.49,4.55-2.64,5.82-4.65l1.01,4.43h7.25v-36.26h-14.5v9.27h5.24v13.5c0,1.32-1.55,4.18-2.92,4.73-3.71,1.49-6.89-.64-7.45-4.43.32-7.87.2-15.75.03-23.63-.09-3.89-.19-7.78-.26-11.68-.06-3.43-.72-7.73.69-10.97,1.05-2.42,3.77-3.98,6.56-2.76.73.32,1.38.84,1.85,1.49,1.64,2.22,1.55,5.27,1.65,7.89.13,3.26.08,6.51-.2,9.75,3.11-.1,6.22-.11,9.33-.04-.27-3.6.02-7.16.1-10.76.04-1.57,0-3.16-.18-4.73-.24-2.02-.73-3.98-1.65-5.78ZM945.74,328.93c-2.53-2.97-3.37-6.62-3.38-10.44,0-2.79-.22-7.57,2.82-8.99,1.88-.88,4.84-.23,5.5,1.95.12.39.12.8.12,1.21,0,3.89,0,7.78,0,11.67l.6.6h9.06v-13.9c0-5.33-5.57-10.43-10.72-11.04-15.86-1.87-18.13,10.86-17.07,23.52,1.05,12.62,17.28,16.93,18.49,26.23.43,3.31.71,7.02-.27,10.26-.43,1.42-1.2,2.9-2.75,3.29-2.19.55-4.66-1.11-5.36-3.14-.42-1.22-.43-2.53-.43-3.82-.01-3.21-.02-6.43-.03-9.64h-9.63c.73,7.11-2.13,14.73,3.29,20.82,1.69,1.9,3.94,3.22,6.36,3.98,9.28,2.91,16.26-2.76,17.98-10.49.84-3.78.83-7.86.56-11.71-.69-9.88-9.43-13.66-15.13-20.36ZM734.85,300.54c-.22.14-.39.98-.39,1.24v43.91l-12.09-44.92h-10.27c-.12,0-.31-.51-.6-.4v71.3h9.67v-43.91l12.09,43.91h10.88v-70.9h-8.66c-.09,0-.31-.5-.62-.23ZM845.14,360.48c-3.15,16.89-29.09,15.15-29.7-2.32.83-14.4-1.13-30.07-.02-44.32.56-7.2,5.04-12.88,12.41-13.77,8.04-.97,16.47,3.52,17.41,12.17,1.63,14.97-1.14,32.96-.11,48.24ZM835.57,314.26c-.64-3.59-2.72-5.73-6.56-4.94-3.2.66-3.55,3.84-3.91,6.56.72,12.99-.98,27.03-.02,39.89.18,2.38.73,6.72,3.52,7.35,4.17.95,6.56-1.34,6.96-5.36,1.37-13.7-1.01-29.57,0-43.5ZM694.98,301.37v29.21h-10.07v-29.81h-10.07v70.9h10.07v-31.42h10.07v31.42h9.67v-70.9h-10.07c-.11.29.4.48.4.6ZM660.33,300.97c-10.39-4.23-20.2,2.29-20.96,13.27-1,14.36.8,29.86,0,44.35,1.36,15.66,22.15,18.57,28.01,5.42.24-.54,1.41-3.94,1.41-4.23v-15.91h-9.67v15.11c0,1.62-1.72,3.92-3.45,4.21-3.87.63-5.71-1.11-6.45-4.79.45-13.8-1.22-28.88-.2-42.54.29-3.84,1.68-7.23,6.23-6.61,1.63.22,3.86,2.19,3.86,3.81v16.72h9.67v-17.93c0-3.76-5.03-9.47-8.46-10.87ZM780.68,360.48c-2.7,16.27-27.79,15.55-29.3-1.11-.96-10.58-.23-21.97,0-32.61.23-10.42-2.28-24.95,12.38-26.69,8.37-1,16.14,3.86,17,12.58,1.49,15.03-1.02,32.55-.1,47.83ZM771.12,314.26c-.38-3.55-2.93-5.79-6.56-4.95-1.67.38-3.38,2.85-3.52,4.54,1.13,14.11-1.47,30.49,0,44.32.75,6.97,9.31,6.84,10.07,0-1.1-13.97,1.47-30.21,0-43.91Z"/>
</svg>