<svg width="898" height="373" viewBox="0 0 898 373" fill="none" xmlns="http://www.w3.org/2000/svg">
<path d="M467.514 158.084V273.584H425.514V3.58432H467.514V118.084C467.514 118.384 466.244 118.854 466.514 119.584H508.514V3.58432H551.514C551.784 4.31432 550.514 4.78432 550.514 5.08432V273.584H508.514V156.584H466.514C466.244 157.314 467.514 157.784 467.514 158.084ZM292.514 41.5843H330.514V273.584H372.514V41.5843H412.514V3.58432H292.514V41.5843ZM276.144 3.64432C261.934 3.58432 247.724 3.53432 233.514 3.47432C233.514 3.47432 233.514 130.734 233.514 142.304C233.514 163.874 234.174 185.554 233.534 207.114C233.164 219.634 229.834 238.284 214.044 239.474C205.294 240.134 197.374 233.324 193.874 225.284C190.374 217.244 190.324 208.184 190.334 199.414C190.404 134.174 190.474 68.9443 190.534 3.70432C176.994 3.70432 163.464 3.70432 149.924 3.70432C149.534 63.5943 149.144 123.484 148.754 183.374C148.624 202.814 148.604 222.824 155.824 240.864C176.144 291.654 253.454 286.584 271.244 236.194C277.404 218.754 277.354 199.824 277.244 181.324C276.874 122.094 276.514 62.8543 276.144 3.62432V3.64432ZM845.514 3.58432L809.014 198.594L774.514 3.58432H721.514V273.584H759.514V99.5843L790.514 273.594L825.934 273.644L858.514 97.5843V273.584H897.514V3.58432H845.514ZM615.514 273.584H572.514V58.0843C572.514 47.8243 580.814 28.0743 587.494 20.0643C612.824 -10.3357 673.884 -5.42568 690.684 31.9143C692.994 37.0543 697.514 51.8443 697.514 57.0843V273.584H655.514V190.584H615.514V273.584ZM615.384 154.594C615.384 154.594 615.464 154.594 615.514 154.594C628.844 154.584 642.184 154.574 655.514 154.574C656.094 154.574 655.994 59.6143 652.844 51.4243C651.364 47.5743 649.174 43.8743 645.884 41.3843C637.104 34.7243 622.494 38.7743 618.144 48.7843C615.894 53.9543 615.834 59.7843 615.804 65.4243L615.374 154.594H615.384ZM116.794 24.8043C129.924 43.3843 130.324 67.7843 130.224 90.5243C130.094 121.694 129.964 152.874 129.834 184.054C129.764 200.914 129.644 218.094 124.484 234.144C121.744 242.664 117.414 250.824 111.454 257.544C110.454 258.674 93.1937 272.744 92.5137 270.964C95.4237 278.544 102.484 284.374 110.464 285.824C110.534 285.834 110.604 285.854 110.674 285.864C110.604 296.014 110.544 306.164 110.474 316.324C98.0537 317.994 84.8737 315.744 74.4937 308.724C64.1137 301.704 56.9337 289.614 57.2037 277.084C42.3837 273.764 27.2837 268.294 17.1537 256.984C8.25369 247.054 4.16369 233.634 2.61369 220.384C-0.566314 193.154 -0.196313 165.634 0.403687 138.274C1.04369 109.204 -1.31631 79.9143 3.06369 51.0243C7.68369 20.5543 32.7437 1.78432 63.2237 0.094319C83.7237 -1.03568 104.944 8.03432 116.794 24.8043ZM86.7837 68.6043C86.6837 66.7843 86.5637 64.9243 86.3637 63.0643C85.4837 54.5643 83.2437 46.0043 76.4937 41.1743C68.5937 35.5243 56.6637 37.7843 50.1237 44.9743C41.4237 54.5443 44.4037 67.0143 43.6937 78.6343C42.8437 92.6243 43.3037 106.764 43.6837 120.764C44.5437 152.064 43.3437 184.354 44.4737 215.124C45.6337 246.904 85.1737 246.544 86.4937 215.074C87.4737 191.794 86.1037 168.204 86.8937 144.834C87.7537 119.434 88.1237 94.0043 86.7737 68.6143L86.7837 68.6043ZM506.474 300.364V310.434H515.334V370.664C515.334 370.764 515.004 370.904 515.014 371.064L515.534 371.664H525.004V310.434H533.464V300.764H507.074C506.954 300.764 506.764 300.254 506.474 300.364ZM537.894 371.674H561.264V362.404H547.974V340.244H558.444V330.974H547.974V311.034C547.974 310.914 547.464 310.724 547.574 310.434H561.274V300.764H537.904V371.664L537.894 371.674ZM725.624 300.774H715.554V371.674H738.924V362.404H725.634V300.764L725.624 300.774ZM815.864 371.674H825.534V300.774H815.864V371.674ZM832.784 371.674H856.154V362.404H842.864V340.244H853.334V330.974H842.864V310.424H856.154V300.754H832.784V371.654V371.674ZM806.904 307.284C805.364 304.274 802.654 301.894 799.504 300.684C796.354 299.474 792.784 299.414 789.554 300.424C785.804 301.604 782.504 304.294 780.794 307.844C778.864 311.854 779.194 316.214 779.334 320.514C779.734 333.084 778.194 345.624 779.184 358.184C779.854 366.704 785.204 373.774 794.534 371.894C796.944 371.404 799.084 369.254 800.354 367.244L801.364 371.674H808.614V335.414H794.114V344.684H799.354V358.184C799.354 359.504 797.804 362.364 796.434 362.914C792.724 364.404 789.544 362.274 788.984 358.484C789.304 350.614 789.184 342.734 789.014 334.854C788.924 330.964 788.824 327.074 788.754 323.174C788.694 319.744 788.034 315.444 789.444 312.204C790.494 309.784 793.214 308.224 796.004 309.444C796.734 309.764 797.384 310.284 797.854 310.934C799.494 313.154 799.404 316.204 799.504 318.824C799.634 322.084 799.584 325.334 799.304 328.574C802.414 328.474 805.524 328.464 808.634 328.534C808.364 324.934 808.654 321.374 808.734 317.774C808.774 316.204 808.734 314.614 808.554 313.044C808.314 311.024 807.824 309.064 806.904 307.264V307.284ZM873.254 328.934C870.724 325.964 869.884 322.314 869.874 318.494C869.874 315.704 869.654 310.924 872.694 309.504C874.574 308.624 877.534 309.274 878.194 311.454C878.314 311.844 878.314 312.254 878.314 312.664C878.314 316.554 878.314 320.444 878.314 324.334L878.914 324.934H887.974V311.034C887.974 305.704 882.404 300.604 877.254 299.994C861.394 298.124 859.124 310.854 860.184 323.514C861.234 336.134 877.464 340.444 878.674 349.744C879.104 353.054 879.384 356.764 878.404 360.004C877.974 361.424 877.204 362.904 875.654 363.294C873.464 363.844 870.994 362.184 870.294 360.154C869.874 358.934 869.864 357.624 869.864 356.334C869.854 353.124 869.844 349.904 869.834 346.694H860.204C860.934 353.804 858.074 361.424 863.494 367.514C865.184 369.414 867.434 370.734 869.854 371.494C879.134 374.404 886.114 368.734 887.834 361.004C888.674 357.224 888.664 353.144 888.394 349.294C887.704 339.414 878.964 335.634 873.264 328.934H873.254ZM662.364 300.544C662.144 300.684 661.974 301.524 661.974 301.784V345.694L649.884 300.774H639.614C639.494 300.774 639.304 300.264 639.014 300.374V371.674H648.684V327.764L660.774 371.674H671.654V300.774H662.994C662.904 300.774 662.684 300.274 662.374 300.544H662.364ZM772.654 360.484C769.504 377.374 743.564 375.634 742.954 358.164C743.784 343.764 741.824 328.094 742.934 313.844C743.494 306.644 747.974 300.964 755.344 300.074C763.384 299.104 771.814 303.594 772.754 312.244C774.384 327.214 771.614 345.204 772.644 360.484H772.654ZM763.084 314.264C762.444 310.674 760.364 308.534 756.524 309.324C753.324 309.984 752.974 313.164 752.614 315.884C753.334 328.874 751.634 342.914 752.594 355.774C752.774 358.154 753.324 362.494 756.114 363.124C760.284 364.074 762.674 361.784 763.074 357.764C764.444 344.064 762.064 328.194 763.074 314.264H763.084ZM622.494 301.374V330.584H612.424V300.774H602.354V371.674H612.424V340.254H622.494V371.674H632.164V300.774H622.094C621.984 301.064 622.494 301.254 622.494 301.374ZM587.844 300.974C577.454 296.744 567.644 303.264 566.884 314.244C565.884 328.604 567.684 344.104 566.884 358.594C568.244 374.254 589.034 377.164 594.894 364.014C595.134 363.474 596.304 360.074 596.304 359.784V343.874H586.634V358.984C586.634 360.604 584.914 362.904 583.184 363.194C579.314 363.824 577.474 362.084 576.734 358.404C577.184 344.604 575.514 329.524 576.534 315.864C576.824 312.024 578.214 308.634 582.764 309.254C584.394 309.474 586.624 311.444 586.624 313.064V329.784H596.294V311.854C596.294 308.094 591.264 302.384 587.834 300.984L587.844 300.974ZM708.194 360.484C705.494 376.754 680.404 376.034 678.894 359.374C677.934 348.794 678.664 337.404 678.894 326.764C679.124 316.344 676.614 301.814 691.274 300.074C699.644 299.074 707.414 303.934 708.274 312.654C709.764 327.684 707.254 345.204 708.174 360.484H708.194ZM698.634 314.264C698.254 310.714 695.704 308.474 692.074 309.314C690.404 309.694 688.694 312.164 688.554 313.854C689.684 327.964 687.084 344.344 688.554 358.174C689.304 365.144 697.864 365.014 698.624 358.174C697.524 344.204 700.094 327.964 698.624 314.264H698.634Z" fill="url(#paint0_linear_2432_302)"/>
<defs>
<linearGradient id="paint0_linear_2432_302" x1="0.00368704" y1="186.164" x2="897.514" y2="186.164" gradientUnits="userSpaceOnUse">
<stop offset="0.05" stop-color="#7B7B7B"/>
<stop offset="0.55" stop-color="#DEDEDE"/>
<stop offset="0.86" stop-color="#A0A0A0"/>
</linearGradient>
</defs>
</svg>
